<?xml version="1.0" encoding="utf-8"?>
<!-- Generator: Adobe Illustrator 23.0.3, SVG Export Plug-In . SVG Version: 6.00 Build 0)  -->
<svg version="1.1" xmlns="http://www.w3.org/2000/svg" xmlns:xlink="http://www.w3.org/1999/xlink" x="0px" y="0px"
	 viewBox="0 0 300 90" style="enable-background:new 0 0 300 90;" xml:space="preserve">
<style type="text/css">
	.st0{fill:#878282;}
	.st1{fill:#A50F1A;}
	.st2{fill:url(#SVGID_1_);}
	.st3{fill:url(#SVGID_2_);}
	.st4{fill:url(#SVGID_3_);}
</style>
<g id="Layer_5">
	<g>
		<path class="st0" d="M127.4,42.8L120,61.3h-5.8l-7.4-18.5h7.6c0.5,1.6,1.1,4.1,1.9,7.4c0.1,0.6,0.2,1.2,0.2,1.8
			c0.2,0.9,0.4,1.4,0.7,1.4c0.3,0,0.5-0.5,0.7-1.4c0.1-0.6,0.2-1.2,0.2-1.8c0.1-0.5,0.7-3,1.9-7.4H127.4z"/>
		<path class="st0" d="M148.8,52.1c0,2.9-0.9,5.3-2.8,7.1c-1.9,1.8-4.2,2.7-7.2,2.7c-2.9,0-5.3-0.9-7.2-2.7
			c-1.9-1.8-2.8-4.2-2.8-7.1c0-2.9,0.9-5.3,2.8-7.1c1.9-1.8,4.3-2.7,7.2-2.7c2.9,0,5.3,0.9,7.1,2.7
			C147.8,46.8,148.8,49.2,148.8,52.1z M142.1,52.1c0-1.1-0.3-2-0.8-2.8c-0.6-0.9-1.5-1.3-2.5-1.3c-1,0-1.8,0.4-2.4,1.2
			c-0.6,0.8-0.9,1.7-0.9,2.8c0,1.7,0.5,2.9,1.6,3.6l0.3-1.1c0.2,1.1,0.6,1.7,1.4,1.7c1,0,1.8-0.4,2.5-1.3
			C141.8,54.1,142.1,53.2,142.1,52.1z"/>
		<path class="st0" d="M159.5,37.1c0,1-0.5,1.7-1.4,2.4c-0.8,0.6-1.7,0.8-2.7,0.8c-1,0-2-0.3-2.8-0.8c-0.9-0.6-1.4-1.4-1.4-2.4
			c0-1,0.5-1.9,1.4-2.5c0.8-0.5,1.7-0.8,2.8-0.8c1,0,2,0.3,2.8,0.9C159,35.3,159.5,36.1,159.5,37.1z M158.9,61.3h-7.2V42.8h7.2V61.3
			z"/>
		<path class="st0" d="M177.4,59.2c-2.1,1.9-4.5,2.8-7.2,2.8c-2.8,0-5-1-6.7-2.9c-1.6-1.9-2.4-4.2-2.4-6.9c0-2.9,0.9-5.2,2.7-7.1
			c1.8-1.9,4.2-2.8,7-2.8c2,0,4,0.5,6,1.6l-2.3,4.8c-0.7-0.3-1.2-0.4-1.5-0.4c-1.3,0-2.4,0.3-3.2,0.9c-1,0.7-1.5,1.7-1.5,2.9
			c0,1,0.3,1.9,0.9,2.7c0.7,0.9,1.5,1.3,2.5,1.3c1.2,0,2.2-0.2,2.9-0.7L177.4,59.2z"/>
		<path class="st0" d="M199.6,53.1h-13.2c0,1.2,0.2,2.2,0.8,3c0.6,0.9,1.6,1.4,2.7,1.4c0.7,0,1.3-0.2,1.8-0.6c0.5-0.4,0.9-0.9,1-1.5
			l6.1,0.8c-0.7,1.9-2,3.3-3.7,4.3c-1.6,0.9-3.5,1.4-5.6,1.4c-2.8,0-5.1-0.9-7-2.6c-1.9-1.8-2.9-4-2.9-6.7c0-3,1-5.5,2.9-7.4
			c1.9-2,4.4-2.9,7.4-2.9c3.1,0,5.5,1.1,7.2,3.2C198.9,47.5,199.7,50,199.6,53.1z M193.1,49.4c0-0.9-0.3-1.6-1-2.3
			c-0.7-0.7-1.4-1-2.3-1c-1.2,0-2.1,0.5-2.6,1.4c-0.3,0.6-0.6,1.6-0.9,3h6.3C193,50,193.1,49.6,193.1,49.4z"/>
		<path class="st0" d="M217.1,60.8c-1.7,0.8-3.4,1.1-5.2,1.1c-2.8,0-4.8-0.9-5.8-2.6c-0.8-1.3-1.2-3.3-1.2-6.1c0-0.6,0-1.4,0.1-2.5
			c0-1.1,0.1-1.9,0.1-2.3h-2.8v-5.6h2.8v-4.8h7.1v4.8h4.2v5.6h-4.2v4.9c0,2.4,1.1,3.7,3.4,3.7c0.3,0,0.5,0,0.8,0L217.1,60.8z"/>
		<path class="st0" d="M238.9,42.8l-7.4,18.5h-5.8l-7.4-18.5h7.6c0.5,1.6,1.1,4.1,1.9,7.4c0.1,0.6,0.2,1.2,0.2,1.8
			c0.2,0.9,0.4,1.4,0.7,1.4c0.3,0,0.5-0.5,0.7-1.4c0.1-0.6,0.2-1.2,0.2-1.8c0.1-0.5,0.7-3,1.9-7.4H238.9z"/>
		<path class="st0" d="M265.2,38.5c0,2.3-0.8,4.5-2.3,6.6c-1.2,1.6-2.9,3.3-5.3,5.1c-1.9,1.4-3.9,2.8-5.8,4.2H265v6.8h-25.3v-4.9
			c5.9-4.9,9-7.6,9.4-8c4.4-4.2,6.7-7.2,6.7-9.1c0-0.9-0.4-1.7-1.1-2.4c-0.7-0.7-1.6-1-2.5-1c-1.1,0-2,0.4-2.7,1.2
			c-0.6,0.8-0.9,1.8-1,3h-8.8c0.3-3.7,1.6-6.6,4-8.7c2.3-2.2,5.3-3.2,9-3.2c3.4,0,6.3,0.9,8.6,2.7C263.9,32.6,265.2,35.2,265.2,38.5
			z"/>
		<path class="st0" d="M292.5,54.8h-3.1v6.4h-8.3v-6.4h-14.2v-5.5l11.4-20.5h11.2V49h3.1V54.8z M281.7,31.6
			c-1.9,4.6-4.8,10.3-8.8,17.4h8.1C281.1,45.2,281.3,39.4,281.7,31.6z"/>
	</g>
</g>
<g id="Layer_1">
</g>
<g id="Layer_4">
</g>
<g id="Layer_3">
</g>
<g id="Layer_2">
	<g>
		<path class="st1" d="M98.8,45c0,15-12.7,27.2-28.3,27.2C54.9,72.2,42.2,60,42.2,45c0-15,12.7-27.2,28.3-27.2
			C86.1,17.8,98.8,30,98.8,45z"/>
		<g>
			<linearGradient id="SVGID_1_" gradientUnits="userSpaceOnUse" x1="8.5692" y1="45.6872" x2="58.8845" y2="45.6872">
				<stop  offset="0" style="stop-color:#CD5E3E"/>
				<stop  offset="4.044823e-02" style="stop-color:#D56540"/>
				<stop  offset="0.1282" style="stop-color:#E07042"/>
				<stop  offset="0.2218" style="stop-color:#E47343"/>
				<stop  offset="0.4892" style="stop-color:#812B32"/>
				<stop  offset="0.8226" style="stop-color:#600315"/>
			</linearGradient>
			<path class="st2" d="M58.9,20.4l-16.8,45c-0.6,1.7-1.7,3-3.3,4c-1.6,1-3.3,1.5-5.1,1.5c-4.2,0-7-1.8-8.4-5.5L8.6,20.4h12.8
				L33.6,54L46,20.4H58.9z"/>
		</g>
		<linearGradient id="SVGID_2_" gradientUnits="userSpaceOnUse" x1="47.4469" y1="45.4124" x2="69.8817" y2="45.4124">
			<stop  offset="0" style="stop-color:#FFFFFF"/>
			<stop  offset="1" style="stop-color:#787878"/>
		</linearGradient>
		<path class="st3" d="M67.6,63.3c-2.2,1.3-4.6,1.9-7.1,1.9c-3.8,0-6.4-1.4-7.9-4.3c-1.1-2.2-1.6-5.5-1.6-10c0-0.9,0-2.3,0.1-4.1
			c0.1-1.8,0.1-3.1,0.2-3.9h-3.8v-9.3h3.8v-7.9h9.6v7.9h5.7l3.3,9.3h-9v8c0,4,1.5,6.1,4.6,6.1c0.3,0,0.7,0,1,0L67.6,63.3z"/>
		<g>
			<linearGradient id="SVGID_3_" gradientUnits="userSpaceOnUse" x1="64.3688" y1="49.4638" x2="96.2167" y2="49.4638">
				<stop  offset="0" style="stop-color:#FFFFFF"/>
				<stop  offset="1" style="stop-color:#787878"/>
			</linearGradient>
			<path class="st4" d="M96.2,33.3L85.6,62.1c-0.4,1.1-1.1,1.9-2.1,2.6c-1,0.7-2.1,1-3.2,1c-2.7,0-4.5-1.2-5.3-3.5L64.4,33.3h8.1
				l7.7,21.5l7.9-21.5H96.2z"/>
		</g>
	</g>
</g>
</svg>
